<svg width="1200" height="720" viewBox="0 0 1200 720" fill="none" xmlns="http://www.w3.org/2000/svg">
  <rect width="1200" height="720" rx="48" fill="#1A2128"/>
  <rect x="52" y="56" width="1096" height="608" rx="34" fill="#121920" stroke="#FFFFFF" stroke-opacity="0.12"/>
  <rect x="92" y="108" width="12" height="12" rx="6" fill="#B8C4CF"/>
  <rect x="112" y="108" width="12" height="12" rx="6" fill="#7E92A5"/>
  <rect x="132" y="108" width="12" height="12" rx="6" fill="#53697C"/>
  <rect x="92" y="164" width="260" height="188" rx="28" fill="#2D3B49"/>
  <rect x="376" y="164" width="260" height="188" rx="28" fill="#425564"/>
  <rect x="660" y="164" width="260" height="188" rx="28" fill="#2A3138"/>
  <rect x="92" y="392" width="544" height="208" rx="28" fill="#F4F7F9"/>
  <rect x="660" y="392" width="260" height="208" rx="28" fill="#344553"/>
  <rect x="944" y="164" width="164" height="436" rx="28" fill="#E8EDF1"/>
  <rect x="120" y="198" width="112" height="18" rx="9" fill="#D7E0E7" fill-opacity="0.7"/>
  <rect x="120" y="230" width="82" height="46" rx="14" fill="#EAF0F4"/>
  <rect x="404" y="198" width="118" height="18" rx="9" fill="#DCE5EC" fill-opacity="0.7"/>
  <rect x="404" y="230" width="84" height="46" rx="14" fill="#EDF2F6"/>
  <rect x="688" y="198" width="96" height="18" rx="9" fill="#FFFFFF" fill-opacity="0.22"/>
  <rect x="688" y="230" width="84" height="46" rx="14" fill="#FFFFFF" fill-opacity="0.12"/>
  <rect x="120" y="428" width="224" height="16" rx="8" fill="#314252" fill-opacity="0.24"/>
  <rect x="120" y="462" width="472" height="18" rx="9" fill="#182028" fill-opacity="0.08"/>
  <rect x="120" y="494" width="430" height="18" rx="9" fill="#182028" fill-opacity="0.08"/>
  <rect x="120" y="526" width="388" height="18" rx="9" fill="#182028" fill-opacity="0.08"/>
  <rect x="692" y="428" width="164" height="16" rx="8" fill="#EAF0F4" fill-opacity="0.72"/>
  <rect x="692" y="466" width="196" height="16" rx="8" fill="#EAF0F4" fill-opacity="0.42"/>
  <rect x="692" y="504" width="180" height="16" rx="8" fill="#EAF0F4" fill-opacity="0.42"/>
  <rect x="692" y="542" width="150" height="16" rx="8" fill="#EAF0F4" fill-opacity="0.42"/>
  <rect x="976" y="198" width="100" height="16" rx="8" fill="#182028" fill-opacity="0.24"/>
  <rect x="976" y="238" width="100" height="100" rx="20" fill="#1A2128"/>
  <rect x="976" y="368" width="100" height="16" rx="8" fill="#182028" fill-opacity="0.12"/>
  <rect x="976" y="400" width="100" height="16" rx="8" fill="#182028" fill-opacity="0.12"/>
  <rect x="976" y="432" width="100" height="16" rx="8" fill="#182028" fill-opacity="0.12"/>
</svg>
